Quality is bad, dont download if u are not satisfied with the quality.


Genre:Action | Drama | Thriller | Western
Language:English
IMDb:http://www.imdb.com/title/tt1075747/
Video Source:V2-TA:Thanks.
Audio Source::V2-TA:Thanks.
Subtitles: ROMANA
Encoder: Tony2
...............................................
General
Complete name : Jonah.Hex.2010.CAM.XviD.FEEL-FREE
Format : AVI
Format/Info : Audio Video Interleave
File size : 606 MiB
Duration : 1h 12mn
Overall bit rate : 1 163 Kbps
Writing library : VirtualDub build 32817/release
................................................
Video
ID : 0
Format : MPEG-4 Visual
Format profile : AdvancedSimple@L5
Format settings, BVOP : Yes
Format settings, QPel : No
Format settings, GMC : No warppoints
Format settings, Matrix : Default (H.263)
Muxing mode : Packed bitstream
Codec ID : XVID
Codec ID/Hint : XviD
Duration : 1h 12mn
Bit rate : 992 Kbps
Width : 720 pixels
Height : 304 pixels
Display aspect ratio : 2.35:1
Frame rate : 29.970 fps
Resolution : 24 bits
Colorimetry : 4:2:0
Scan type : Progressive
Bits/(Pixel*Frame) : 0.151
Stream size : 516 MiB (85%)
Writing library : XviD 1.2.1 (UTC 2008-12-04)
.................................................
Audio
ID : 1
Format : MPEG Audio
Format version : Version 1
Format profile : Layer 3
Format settings, Mode : Joint stereo / MS Stereo
Codec ID : 55
Codec ID/Hint : MP3
Duration : 1h 12mn
Bit rate mode : Constant
Bit rate : 160 Kbps
Channel(s) : 2 channels
Sampling rate : 44.1 KHz
Resolution : 16 bits
Stream size : 83.3 MiB (14%)
Alignment : Split accross interleaves
Interleave, duration : 33 ms (1.00 video frame)
Interleave, preload duration : 500 ms
..................................................
Plot:
The U.S. military makes a scarred bounty hunter with warrants on his own head an offer he cannot refuse: in exchange for his freedom, he must stop a terrorist who is ready to unleash Hell on Earth.
...................................................
Screenshots 
http://postimg.com/image/18000/17457.jpg 
http://postimg.com/image/18000/17458.jpg 
http://postimg.com/image/18000/17459.jpg
....................................................